<svg width="198" height="51" viewBox="0 0 198 51" fill="none" xmlns="http://www.w3.org/2000/svg">
<path d="M2.088 23V6.2H17.4V23H13.536V8.48L14.424 9.368H5.064L5.952 8.48V23H2.088ZM25.1406 12.968H33.2286V15.992H25.1406V12.968ZM25.4286 19.88H34.5726V23H21.5646V6.2H34.2606V9.32H25.4286V19.88ZM37.713 23V6.2H44.985C46.489 6.2 47.785 6.448 48.873 6.944C49.961 7.424 50.801 8.12 51.393 9.032C51.985 9.944 52.281 11.032 52.281 12.296C52.281 13.544 51.985 14.624 51.393 15.536C50.801 16.448 49.961 17.152 48.873 17.648C47.785 18.128 46.489 18.368 44.985 18.368H39.873L41.601 16.616V23H37.713ZM41.601 17.048L39.873 15.2H44.769C45.969 15.2 46.865 14.944 47.457 14.432C48.049 13.92 48.345 13.208 48.345 12.296C48.345 11.368 48.049 10.648 47.457 10.136C46.865 9.624 45.969 9.368 44.769 9.368H39.873L41.601 7.52V17.048ZM58.4218 12.968H66.5098V15.992H58.4218V12.968ZM58.7098 19.88H67.8538V23H54.8458V6.2H67.5418V9.32H58.7098V19.88ZM70.9943 23V6.2H78.8183C80.7703 6.2 82.2903 6.576 83.3783 7.328C84.4663 8.08 85.0103 9.152 85.0103 10.544C85.0103 11.92 84.4983 12.992 83.4743 13.76C82.4503 14.512 81.0903 14.888 79.3943 14.888L79.8503 13.88C81.7383 13.88 83.2023 14.256 84.2423 15.008C85.2823 15.76 85.8023 16.848 85.8023 18.272C85.8023 19.744 85.2423 20.904 84.1223 21.752C83.0182 22.584 81.4023 23 79.2743 23H70.9943ZM74.8583 20.12H79.1303C80.0263 20.12 80.7063 19.944 81.1703 19.592C81.6343 19.24 81.8663 18.696 81.8663 17.96C81.8663 17.256 81.6343 16.736 81.1703 16.4C80.7063 16.048 80.0263 15.872 79.1303 15.872H74.8583V20.12ZM74.8583 13.16H78.4823C79.3303 13.16 79.9703 12.992 80.4023 12.656C80.8343 12.304 81.0503 11.792 81.0503 11.12C81.0503 10.448 80.8343 9.944 80.4023 9.608C79.9703 9.256 79.3303 9.08 78.4823 9.08H74.8583V13.16ZM96.9171 23.288C95.5891 23.288 94.3571 23.072 93.2211 22.64C92.1011 22.208 91.1251 21.6 90.2931 20.816C89.4771 20.032 88.8371 19.112 88.3731 18.056C87.9251 17 87.7011 15.848 87.7011 14.6C87.7011 13.352 87.9251 12.2 88.3731 11.144C88.8371 10.088 89.4851 9.168 90.3171 8.384C91.1491 7.6 92.1251 6.992 93.2451 6.56C94.3651 6.128 95.5811 5.912 96.8931 5.912C98.2211 5.912 99.4371 6.128 100.541 6.56C101.661 6.992 102.629 7.6 103.445 8.384C104.277 9.168 104.925 10.088 105.389 11.144C105.853 12.184 106.085 13.336 106.085 14.6C106.085 15.848 105.853 17.008 105.389 18.08C104.925 19.136 104.277 20.056 103.445 20.84C102.629 21.608 101.661 22.208 100.541 22.64C99.4371 23.072 98.2291 23.288 96.9171 23.288ZM96.8931 19.976C97.6451 19.976 98.3331 19.848 98.9571 19.592C99.5971 19.336 100.157 18.968 100.637 18.488C101.117 18.008 101.485 17.44 101.741 16.784C102.013 16.128 102.149 15.4 102.149 14.6C102.149 13.8 102.013 13.072 101.741 12.416C101.485 11.76 101.117 11.192 100.637 10.712C100.173 10.232 99.6211 9.864 98.9811 9.608C98.3411 9.352 97.6451 9.224 96.8931 9.224C96.1411 9.224 95.4451 9.352 94.8051 9.608C94.1811 9.864 93.6291 10.232 93.1491 10.712C92.6691 11.192 92.2931 11.76 92.0211 12.416C91.7651 13.072 91.6371 13.8 91.6371 14.6C91.6371 15.384 91.7651 16.112 92.0211 16.784C92.2931 17.44 92.6611 18.008 93.1251 18.488C93.6051 18.968 94.1651 19.336 94.8051 19.592C95.4451 19.848 96.1411 19.976 96.8931 19.976ZM107.099 21.512L108.299 18.728C109.019 19.16 109.787 19.496 110.603 19.736C111.435 19.96 112.243 20.088 113.027 20.12C113.827 20.136 114.547 20.056 115.187 19.88C115.843 19.704 116.363 19.44 116.747 19.088C117.147 18.736 117.347 18.288 117.347 17.744C117.347 17.104 117.083 16.632 116.555 16.328C116.027 16.008 115.323 15.848 114.443 15.848H110.339V12.92H114.155C114.939 12.92 115.547 12.76 115.979 12.44C116.427 12.12 116.651 11.68 116.651 11.12C116.651 10.64 116.491 10.256 116.171 9.968C115.851 9.664 115.411 9.44 114.851 9.296C114.307 9.152 113.691 9.088 113.003 9.104C112.315 9.12 111.603 9.232 110.867 9.44C110.131 9.648 109.427 9.936 108.755 10.304L107.579 7.304C108.667 6.744 109.811 6.36 111.011 6.152C112.227 5.928 113.395 5.872 114.515 5.984C115.651 6.08 116.675 6.336 117.587 6.752C118.499 7.152 119.227 7.68 119.771 8.336C120.315 8.992 120.587 9.768 120.587 10.664C120.587 11.464 120.379 12.176 119.963 12.8C119.547 13.424 118.963 13.904 118.211 14.24C117.475 14.576 116.627 14.744 115.667 14.744L115.763 13.88C116.883 13.88 117.851 14.072 118.667 14.456C119.499 14.824 120.139 15.344 120.587 16.016C121.051 16.672 121.283 17.432 121.283 18.296C121.283 19.096 121.067 19.816 120.635 20.456C120.219 21.08 119.643 21.608 118.907 22.04C118.171 22.472 117.331 22.792 116.387 23C115.443 23.208 114.435 23.296 113.363 23.264C112.307 23.232 111.243 23.08 110.171 22.808C109.099 22.52 108.075 22.088 107.099 21.512ZM132.401 23.288C131.073 23.288 129.841 23.072 128.705 22.64C127.585 22.208 126.609 21.6 125.777 20.816C124.961 20.032 124.321 19.112 123.857 18.056C123.409 17 123.185 15.848 123.185 14.6C123.185 13.352 123.409 12.2 123.857 11.144C124.321 10.088 124.969 9.168 125.801 8.384C126.633 7.6 127.609 6.992 128.729 6.56C129.849 6.128 131.065 5.912 132.377 5.912C133.705 5.912 134.921 6.128 136.025 6.56C137.145 6.992 138.113 7.6 138.929 8.384C139.761 9.168 140.409 10.088 140.873 11.144C141.337 12.184 141.569 13.336 141.569 14.6C141.569 15.848 141.337 17.008 140.873 18.08C140.409 19.136 139.761 20.056 138.929 20.84C138.113 21.608 137.145 22.208 136.025 22.64C134.921 23.072 133.713 23.288 132.401 23.288ZM132.377 19.976C133.129 19.976 133.817 19.848 134.441 19.592C135.081 19.336 135.641 18.968 136.121 18.488C136.601 18.008 136.969 17.44 137.225 16.784C137.497 16.128 137.633 15.4 137.633 14.6C137.633 13.8 137.497 13.072 137.225 12.416C136.969 11.76 136.601 11.192 136.121 10.712C135.657 10.232 135.105 9.864 134.465 9.608C133.825 9.352 133.129 9.224 132.377 9.224C131.625 9.224 130.929 9.352 130.289 9.608C129.665 9.864 129.113 10.232 128.633 10.712C128.153 11.192 127.777 11.76 127.505 12.416C127.249 13.072 127.121 13.8 127.121 14.6C127.121 15.384 127.249 16.112 127.505 16.784C127.777 17.44 128.145 18.008 128.609 18.488C129.089 18.968 129.649 19.336 130.289 19.592C130.929 19.848 131.625 19.976 132.377 19.976ZM144.565 23V6.2H152.389C154.341 6.2 155.861 6.576 156.949 7.328C158.037 8.08 158.581 9.152 158.581 10.544C158.581 11.92 158.069 12.992 157.045 13.76C156.021 14.512 154.661 14.888 152.965 14.888L153.421 13.88C155.309 13.88 156.773 14.256 157.813 15.008C158.853 15.76 159.373 16.848 159.373 18.272C159.373 19.744 158.813 20.904 157.693 21.752C156.589 22.584 154.973 23 152.845 23H144.565ZM148.429 20.12H152.701C153.597 20.12 154.277 19.944 154.741 19.592C155.205 19.24 155.437 18.696 155.437 17.96C155.437 17.256 155.205 16.736 154.741 16.4C154.277 16.048 153.597 15.872 152.701 15.872H148.429V20.12ZM148.429 13.16H152.053C152.901 13.16 153.541 12.992 153.973 12.656C154.405 12.304 154.621 11.792 154.621 11.12C154.621 10.448 154.405 9.944 153.973 9.608C153.541 9.256 152.901 9.08 152.053 9.08H148.429V13.16ZM162.447 23V6.2H166.311V17.144L174.327 6.2H177.975V23H174.135V12.08L166.119 23H162.447ZM192.202 16.736C191.37 17.072 190.57 17.328 189.802 17.504C189.034 17.664 188.298 17.744 187.594 17.744C185.338 17.744 183.61 17.208 182.41 16.136C181.21 15.048 180.61 13.488 180.61 11.456V6.2H184.45V11.024C184.45 12.176 184.762 13.048 185.386 13.64C186.01 14.216 186.898 14.504 188.05 14.504C188.786 14.504 189.498 14.424 190.186 14.264C190.874 14.088 191.514 13.84 192.106 13.52L192.202 16.736ZM191.65 23V6.2H195.49V23H191.65Z" fill="white"/>
<path d="M123.914 29.4067C124.138 28.9022 123.911 28.3111 123.407 28.0864L115.185 24.426C114.68 24.2014 114.089 24.4283 113.864 24.9328C113.64 25.4374 113.867 26.0285 114.371 26.2531L121.68 29.5068L118.426 36.8153C118.201 37.3198 118.428 37.9109 118.933 38.1355C119.437 38.3602 120.028 38.1332 120.253 37.6287L123.914 29.4067ZM2.63348 29.9304C27.4245 39.6966 45.3831 44.4277 63.2947 44.3274C81.2022 44.2272 98.9651 39.2979 123.358 29.9336L122.642 28.0664C98.3059 37.4086 80.8188 42.2293 63.2835 42.3275C45.7524 42.4256 28.0755 37.8034 3.36652 28.0696L2.63348 29.9304Z" fill="white"/>
</svg>
